<!-- Generated by IcoMoon.io -->
<svg version="1.1" xmlns="http://www.w3.org/2000/svg" viewBox="0 0 38 32">
<title>youtube-white</title>
<path d="M34.676 8.873c0.003-0.071 0.005-0.155 0.005-0.239 0-2.834-2.226-5.148-5.026-5.288-3.794-0.175-7.634-0.233-11.649-0.233h-1.164c-3.927 0-7.796 0-11.636 0.233-2.788 0.186-4.979 2.494-4.979 5.312 0 0.076 0.002 0.151 0.005 0.226-0.233 2.433-0.233 4.848-0.233 7.291s0 4.858 0.233 7.273c-0.006 0.098-0.010 0.212-0.010 0.327 0 2.841 2.226 5.163 5.029 5.316 3.97 0.175 8.043 0.262 12.203 0.262s8.204 0 12.189-0.262c2.815-0.156 5.038-2.476 5.038-5.316 0-0.085-0.002-0.169-0.006-0.252 0.233-2.49 0.233-4.934 0.233-7.348s0-4.858-0.233-7.302zM14.109 22.865v-13.411l9.891 6.691z"></path>
</svg>
