<?xml version="1.0" encoding="utf-8"?><svg xmlns="http://www.w3.org/2000/svg" xmlns:xlink="http://www.w3.org/1999/xlink"><symbol viewBox="0 0 38 32" id="youtube" xmlns="http://www.w3.org/2000/svg"><path d="M34.676 8.873a5.295 5.295 0 0 0-5.021-5.527c-3.794-.175-7.634-.233-11.649-.233h-1.164c-3.927 0-7.796 0-11.636.233A5.327 5.327 0 0 0 .232 8.884c-.233 2.433-.233 4.848-.233 7.291s0 4.858.233 7.273a5.325 5.325 0 0 0 5.019 5.643c3.97.175 8.043.262 12.203.262s8.204 0 12.189-.262a5.326 5.326 0 0 0 5.032-5.568c.233-2.49.233-4.934.233-7.348s0-4.858-.233-7.302zM14.109 22.865V9.454L24 16.145z"/></symbol></svg>